<svg width="512" height="512" viewBox="0 0 44 45" fill="none" xmlns="http://www.w3.org/2000/svg">
    <path d="M34.0388 31.3059V41.453C34.0388 43.0359 34.9102 44.0912 36.2056 44.0912H41.6108C42.9062 44.0912 43.7776 43.0359 43.7776 41.453V31.3059H34.0388Z" fill="#22BBF7"/>
    <path d="M11.8531 31.3059V41.453C11.8531 43.0359 12.7246 44.0912 14.02 44.0912H19.4252C20.7205 44.0912 21.592 43.0359 21.592 41.453V31.3059H11.8531Z" fill="#22BBF7"/>
    <path d="M42.2585 7.49402L37.7129 2.27166C36.7944 1.21637 35.3342 0.526367 34.0388 0.526367H21.6033C20.3079 0.526367 18.8477 1.21637 17.9291 2.27166L13.3836 7.49402C12.465 8.54932 11.8645 10.227 11.8645 11.7152V16.4911C11.8645 17.0593 12.2648 17.5329 12.7712 17.5329H20.6965C21.1911 17.5329 21.6033 17.0729 21.6033 16.4911V11.5123C21.6033 10.944 22.0037 10.4705 22.51 10.4705H33.1438C33.6384 10.4705 34.0506 10.9305 34.0506 11.5123V18.764C34.0506 19.3323 33.6502 19.8058 33.1438 19.8058H1.85478C1.28953 19.8058 0.842041 20.3334 0.842041 20.9693V28.5864C0.842041 29.2358 1.30131 29.7499 1.85478 29.7499H34.0506L42.8944 29.6958C43.389 29.6958 43.7894 29.2358 43.7894 28.654V11.7152C43.7894 10.227 43.1888 8.54932 42.2703 7.49402H42.2585Z" fill="#103F99"/>
    <path d="M24.2882 37.724L27.4691 41.3785C27.6622 41.6004 27.9754 41.6004 28.1685 41.3785L31.3494 37.724C31.5426 37.5021 31.5426 37.1423 31.3494 36.9204L28.1685 33.2659C27.9754 33.044 27.6622 33.044 27.4691 33.2659L24.2882 36.9204C24.095 37.1423 24.095 37.5021 24.2882 37.724Z" fill="#103F99"/>
    <text x="4.5" y="27.5" font-family="Comic Sans MS, cursive, sans-serif" font-size="9" fill="#fff9" font-weight="bold">TASK-R</text>
</svg>
