<svg width="23" height="19" viewBox="0 0 23 19" fill="none" xmlns="http://www.w3.org/2000/svg">
<path d="M2.17879 10.1603C1.99932 9.98524 1.89698 9.74647 1.89698 9.49579C1.89698 9.24512 1.99932 9.00633 2.17879 8.83133L9.54141 1.61716C9.90628 1.24934 9.90776 0.654566 9.54438 0.283795C9.181 -0.0855169 8.58774 -0.095898 8.21249 0.261548L0.849867 7.47572C0.305539 8.00668 0 8.73493 0 9.4958C0 10.2567 0.305535 10.9849 0.849867 11.5159L8.21249 18.73C8.38899 18.9051 8.6278 19.0015 8.87696 19C9.26109 18.9985 9.60817 18.7656 9.75351 18.4097C9.89886 18.0537 9.81433 17.6444 9.54142 17.3744L2.17879 10.1603Z" fill="black"/>
<path d="M22.0399 8.54663H0.95409C0.508916 8.54663 0.146973 8.9723 0.146973 9.49586C0.146973 10.0194 0.508916 10.4451 0.95409 10.4451H22.0399C22.485 10.4451 22.847 10.0194 22.847 9.49586C22.847 8.9723 22.485 8.54663 22.0399 8.54663Z" fill="black"/>
</svg>
