<svg width="123" height="18" viewBox="0 0 123 18" fill="none" xmlns="http://www.w3.org/2000/svg">
<g clip-path="url(#clip0_2_1246)">
<path d="M4.89 9.45H1.85L1.29 11H0.33L2.85 4.07H3.9L6.41 11H5.45L4.89 9.45ZM4.63 8.71L3.37 5.19L2.11 8.71H4.63ZM15.8343 7.51C15.8343 6.83 15.9876 6.22 16.2943 5.68C16.601 5.13333 17.0176 4.70667 17.5443 4.4C18.0776 4.09333 18.6676 3.94 19.3143 3.94C20.0743 3.94 20.7376 4.12333 21.3043 4.49C21.871 4.85667 22.2843 5.37667 22.5443 6.05H21.4543C21.261 5.63 20.981 5.30667 20.6143 5.08C20.2543 4.85333 19.821 4.74 19.3143 4.74C18.8276 4.74 18.391 4.85333 18.0043 5.08C17.6176 5.30667 17.3143 5.63 17.0943 6.05C16.8743 6.46333 16.7643 6.95 16.7643 7.51C16.7643 8.06333 16.8743 8.55 17.0943 8.97C17.3143 9.38333 17.6176 9.70333 18.0043 9.93C18.391 10.1567 18.8276 10.27 19.3143 10.27C19.821 10.27 20.2543 10.16 20.6143 9.94C20.981 9.71333 21.261 9.39 21.4543 8.97H22.5443C22.2843 9.63667 21.871 10.1533 21.3043 10.52C20.7376 10.88 20.0743 11.06 19.3143 11.06C18.6676 11.06 18.0776 10.91 17.5443 10.61C17.0176 10.3033 16.601 9.88 16.2943 9.34C15.9876 8.8 15.8343 8.19 15.8343 7.51ZM30.0589 11.07C29.4122 11.07 28.8222 10.92 28.2889 10.62C27.7556 10.3133 27.3322 9.89 27.0189 9.35C26.7122 8.80333 26.5589 8.19 26.5589 7.51C26.5589 6.83 26.7122 6.22 27.0189 5.68C27.3322 5.13333 27.7556 4.71 28.2889 4.41C28.8222 4.10333 29.4122 3.95 30.0589 3.95C30.7122 3.95 31.3056 4.10333 31.8389 4.41C32.3722 4.71 32.7922 5.13 33.0989 5.67C33.4056 6.21 33.5589 6.82333 33.5589 7.51C33.5589 8.19667 33.4056 8.81 33.0989 9.35C32.7922 9.89 32.3722 10.3133 31.8389 10.62C31.3056 10.92 30.7122 11.07 30.0589 11.07ZM30.0589 10.28C30.5456 10.28 30.9822 10.1667 31.3689 9.94C31.7622 9.71333 32.0689 9.39 32.2889 8.97C32.5156 8.55 32.6289 8.06333 32.6289 7.51C32.6289 6.95 32.5156 6.46333 32.2889 6.05C32.0689 5.63 31.7656 5.30667 31.3789 5.08C30.9922 4.85333 30.5522 4.74 30.0589 4.74C29.5656 4.74 29.1256 4.85333 28.7389 5.08C28.3522 5.30667 28.0456 5.63 27.8189 6.05C27.5989 6.46333 27.4889 6.95 27.4889 7.51C27.4889 8.06333 27.5989 8.55 27.8189 8.97C28.0456 9.39 28.3522 9.71333 28.7389 9.94C29.1322 10.1667 29.5722 10.28 30.0589 10.28ZM40.9202 11.07C40.2736 11.07 39.6836 10.92 39.1502 10.62C38.6169 10.3133 38.1936 9.89 37.8802 9.35C37.5736 8.80333 37.4202 8.19 37.4202 7.51C37.4202 6.83 37.5736 6.22 37.8802 5.68C38.1936 5.13333 38.6169 4.71 39.1502 4.41C39.6836 4.10333 40.2736 3.95 40.9202 3.95C41.5736 3.95 42.1669 4.10333 42.7002 4.41C43.2336 4.71 43.6536 5.13 43.9602 5.67C44.2669 6.21 44.4202 6.82333 44.4202 7.51C44.4202 8.19667 44.2669 8.81 43.9602 9.35C43.6536 9.89 43.2336 10.3133 42.7002 10.62C42.1669 10.92 41.5736 11.07 40.9202 11.07ZM40.9202 10.28C41.4069 10.28 41.8436 10.1667 42.2302 9.94C42.6236 9.71333 42.9302 9.39 43.1502 8.97C43.3769 8.55 43.4902 8.06333 43.4902 7.51C43.4902 6.95 43.3769 6.46333 43.1502 6.05C42.9302 5.63 42.6269 5.30667 42.2402 5.08C41.8536 4.85333 41.4136 4.74 40.9202 4.74C40.4269 4.74 39.9869 4.85333 39.6002 5.08C39.2136 5.30667 38.9069 5.63 38.6802 6.05C38.4602 6.46333 38.3502 6.95 38.3502 7.51C38.3502 8.06333 38.4602 8.55 38.6802 8.97C38.9069 9.39 39.2136 9.71333 39.6002 9.94C39.9936 10.1667 40.4336 10.28 40.9202 10.28ZM49.5316 10.26H51.9716V11H48.6216V4.03H49.5316V10.26ZM66.264 6.07C66.264 6.65 66.064 7.13333 65.664 7.52C65.2707 7.9 64.6673 8.09 63.854 8.09H62.514V11H61.604V4.03H63.854C64.6407 4.03 65.2373 4.22 65.644 4.6C66.0573 4.98 66.264 5.47 66.264 6.07ZM63.854 7.34C64.3607 7.34 64.734 7.23 64.974 7.01C65.214 6.79 65.334 6.47667 65.334 6.07C65.334 5.21 64.8407 4.78 63.854 4.78H62.514V7.34H63.854ZM74.515 9.45H71.475L70.915 11H69.955L72.475 4.07H73.525L76.035 11H75.075L74.515 9.45ZM74.255 8.71L72.995 5.19L71.735 8.71H74.255ZM83.8033 11L82.1433 8.15H81.0433V11H80.1333V4.03H82.3833C82.9099 4.03 83.3533 4.12 83.7133 4.3C84.0799 4.48 84.3533 4.72333 84.5333 5.03C84.7133 5.33667 84.8033 5.68667 84.8033 6.08C84.8033 6.56 84.6633 6.98333 84.3833 7.35C84.1099 7.71667 83.6966 7.96 83.1433 8.08L84.8933 11H83.8033ZM81.0433 7.42H82.3833C82.8766 7.42 83.2466 7.3 83.4933 7.06C83.7399 6.81333 83.8633 6.48667 83.8633 6.08C83.8633 5.66667 83.7399 5.34667 83.4933 5.12C83.2533 4.89333 82.8833 4.78 82.3833 4.78H81.0433V7.42ZM93.5073 4.03V4.77H91.6073V11H90.6973V4.77H88.7873V4.03H93.5073ZM103.107 11H102.197L98.5374 5.45V11H97.6274V4.02H98.5374L102.197 9.56V4.02H103.107V11ZM108.569 4.77V7.1H111.109V7.85H108.569V10.25H111.409V11H107.659V4.02H111.409V4.77H108.569ZM119.456 11L117.796 8.15H116.696V11H115.786V4.03H118.036C118.562 4.03 119.006 4.12 119.366 4.3C119.732 4.48 120.006 4.72333 120.186 5.03C120.366 5.33667 120.456 5.68667 120.456 6.08C120.456 6.56 120.316 6.98333 120.036 7.35C119.762 7.71667 119.349 7.96 118.796 8.08L120.546 11H119.456ZM116.696 7.42H118.036C118.529 7.42 118.899 7.3 119.146 7.06C119.392 6.81333 119.516 6.48667 119.516 6.08C119.516 5.66667 119.392 5.34667 119.146 5.12C118.906 4.89333 118.536 4.78 118.036 4.78H116.696V7.42Z" fill="black"/>
</g>
<defs>
<clipPath id="clip0_2_1246">
<rect width="123" height="18" fill="white"/>
</clipPath>
</defs>
</svg>
