<svg width="12" height="6" viewBox="0 0 12 6" fill="none" xmlns="http://www.w3.org/2000/svg">
<path d="M5.99904 4.78781L10.7442 0.130958C10.8276 0.0470462 10.9401 -2.44758e-08 11.0572 -1.93542e-08C11.1744 -1.42325e-08 11.2869 0.0470462 11.3703 0.130958C11.4114 0.17222 11.444 0.221404 11.4663 0.275647C11.4885 0.32989 11.5 0.388109 11.5 0.446915C11.5 0.50572 11.4885 0.563939 11.4663 0.618182C11.444 0.672425 11.4114 0.721609 11.3703 0.762871L6.31304 5.86904C6.22963 5.95295 6.11717 6 6 6C5.88283 6 5.77037 5.95295 5.68696 5.86904L0.629732 0.762871C0.588644 0.721608 0.556014 0.672424 0.533741 0.618181C0.511469 0.563938 0.5 0.50572 0.5 0.446914C0.5 0.388108 0.511469 0.32989 0.533741 0.275647C0.556014 0.221404 0.588644 0.17222 0.629732 0.130958C0.713143 0.0470458 0.825603 -4.66593e-07 0.942772 -4.61471e-07C1.05994 -4.56349e-07 1.1724 0.0470458 1.25581 0.130958L5.99904 4.78781Z" fill="black"/>
</svg>
