<svg width="14" height="12" viewBox="0 0 14 12" fill="none" xmlns="http://www.w3.org/2000/svg">
<g clip-path="url(#clip0_1_635)">
<path d="M12.5916 10H1.24113C0.615148 10 0.106079 9.5515 0.106079 9V3C0.106079 2.4485 0.615148 2 1.24113 2H12.5916C13.2176 2 13.7267 2.4485 13.7267 3V9C13.7267 9.5515 13.2176 10 12.5916 10ZM1.24113 2.5C0.928138 2.5 0.673603 2.72425 0.673603 3V9C0.673603 9.27575 0.928138 9.5 1.24113 9.5H12.5916C12.9046 9.5 13.1591 9.27575 13.1591 9V3C13.1591 2.72425 12.9046 2.5 12.5916 2.5H1.24113Z" fill="black"/>
<path d="M6.91643 7.29774L1.93839 4.45999C1.80672 4.38474 1.76898 4.23024 1.85411 4.11424C1.93924 3.99824 2.11489 3.96524 2.24656 4.03999L6.91643 6.70224L11.5863 4.03999C11.718 3.96524 11.8936 3.99824 11.9787 4.11424C12.0639 4.23024 12.0261 4.38474 11.8945 4.45999L6.91643 7.29774Z" fill="black"/>
<path d="M1.80899 8.4999C1.71733 8.4999 1.6271 8.4609 1.57261 8.38865C1.4855 8.27365 1.52069 8.11865 1.65122 8.0419L4.20508 6.5419C4.33561 6.46515 4.51182 6.49615 4.59865 6.61115C4.68577 6.72615 4.65058 6.88115 4.52005 6.9579L1.96619 8.4579C1.91767 8.48615 1.8629 8.4999 1.80899 8.4999Z" fill="black"/>
<path d="M12.0238 8.4999C11.9699 8.4999 11.9151 8.48615 11.8666 8.4579L9.31272 6.9579C9.18219 6.88115 9.147 6.72615 9.23411 6.61115C9.32094 6.49615 9.49688 6.46515 9.62769 6.5419L12.1816 8.0419C12.3121 8.11865 12.3473 8.27365 12.2602 8.38865C12.2057 8.4609 12.1154 8.4999 12.0238 8.4999Z" fill="black"/>
</g>
<defs>
<clipPath id="clip0_1_635">
<rect width="13.6206" height="12" fill="white" transform="translate(0.106079)"/>
</clipPath>
</defs>
</svg>
