<svg width="19" height="16" viewBox="0 0 19 16" fill="none" xmlns="http://www.w3.org/2000/svg">
<path d="M8.80016 3.38392C10.5628 3.19885 12.3458 3.52713 13.8768 4.31862C15.4078 5.1101 16.6026 6.3213 17.279 7.76725C17.342 7.91693 17.342 8.08157 17.279 8.23125C17.0009 8.82525 16.6334 9.38359 16.1863 9.89125M11.3359 9.43858C10.9077 9.8029 10.3343 10.0045 9.73907 9.99993C9.14386 9.99538 8.57449 9.78504 8.1536 9.41422C7.7327 9.04341 7.49396 8.54178 7.48879 8.01739C7.48361 7.49299 7.71243 6.98779 8.12594 6.61059M13.9049 11.6659C12.9011 12.1898 11.7811 12.5173 10.6211 12.6262C9.46096 12.7351 8.28784 12.6229 7.1813 12.2972C6.07477 11.9715 5.0607 11.4398 4.20792 10.7384C3.35513 10.037 2.68358 9.18215 2.23883 8.23192C2.17576 8.08224 2.17576 7.9176 2.23883 7.76792C2.90974 6.33449 4.09022 5.13142 5.60311 4.33925M2.19191 1.33325L17.3259 14.6666" stroke="black" stroke-width="0.5" stroke-linecap="round" stroke-linejoin="round"/>
</svg>
