<svg width="19" height="16" viewBox="0 0 19 16" fill="none" xmlns="http://www.w3.org/2000/svg">
<path d="M1.56036 8.232C1.4973 8.08232 1.4973 7.91767 1.56036 7.768C2.17457 6.4559 3.21716 5.33402 4.55596 4.5446C5.89475 3.75517 7.46945 3.33374 9.08043 3.33374C10.6914 3.33374 12.2661 3.75517 13.6049 4.5446C14.9437 5.33402 15.9863 6.4559 16.6005 7.768C16.6636 7.91767 16.6636 8.08232 16.6005 8.232C15.9863 9.54409 14.9437 10.666 13.6049 11.4554C12.2661 12.2448 10.6914 12.6663 9.08043 12.6663C7.46945 12.6663 5.89475 12.2448 4.55596 11.4554C3.21716 10.666 2.17457 9.54409 1.56036 8.232Z" stroke="black" stroke-width="0.5" stroke-linecap="round" stroke-linejoin="round"/>
<path d="M9.08043 10C10.3342 10 11.3505 9.10457 11.3505 8C11.3505 6.89543 10.3342 6 9.08043 6C7.82669 6 6.81034 6.89543 6.81034 8C6.81034 9.10457 7.82669 10 9.08043 10Z" stroke="black" stroke-width="0.5" stroke-linecap="round" stroke-linejoin="round"/>
</svg>
