<svg width="14" height="12" viewBox="0 0 14 12" fill="none" xmlns="http://www.w3.org/2000/svg">
<path d="M10.7471 11.625H3.08552C2.74686 11.625 2.42207 11.5065 2.1826 11.2955C1.94313 11.0845 1.80859 10.7984 1.80859 10.5V6.375C1.80859 6.07663 1.94313 5.79048 2.1826 5.5795C2.42207 5.36853 2.74686 5.25 3.08552 5.25H10.7471C11.0858 5.25 11.4106 5.36853 11.65 5.5795C11.8895 5.79048 12.024 6.07663 12.024 6.375V10.5C12.024 10.7984 11.8895 11.0845 11.65 11.2955C11.4106 11.5065 11.0858 11.625 10.7471 11.625ZM3.08552 6C2.97264 6 2.86437 6.03951 2.78455 6.10983C2.70472 6.18016 2.65988 6.27554 2.65988 6.375V10.5C2.65988 10.5995 2.70472 10.6948 2.78455 10.7652C2.86437 10.8355 2.97264 10.875 3.08552 10.875H10.7471C10.86 10.875 10.9683 10.8355 11.0481 10.7652C11.1279 10.6948 11.1727 10.5995 11.1727 10.5V6.375C11.1727 6.27554 11.1279 6.18016 11.0481 6.10983C10.9683 6.03951 10.86 6 10.7471 6H3.08552Z" fill="#101820"/>
<path d="M10.3215 6H3.51121C3.39833 6 3.29006 5.96049 3.21024 5.89016C3.13042 5.81984 3.08557 5.72446 3.08557 5.625V3.375C3.08557 2.57935 3.44433 1.81629 4.08291 1.25368C4.7215 0.691071 5.58762 0.375 6.49072 0.375H7.342C8.2451 0.375 9.11121 0.691071 9.7498 1.25368C10.3884 1.81629 10.7471 2.57935 10.7471 3.375V5.625C10.7471 5.72446 10.7023 5.81984 10.6225 5.89016C10.5427 5.96049 10.4344 6 10.3215 6ZM3.93686 5.25H9.89586V3.375C9.89586 2.77826 9.62679 2.20597 9.14785 1.78401C8.66891 1.36205 8.01933 1.125 7.342 1.125H6.49072C5.81339 1.125 5.16381 1.36205 4.68487 1.78401C4.20592 2.20597 3.93686 2.77826 3.93686 3.375V5.25Z" fill="#101820"/>
<path d="M6.91635 8.625C6.74798 8.625 6.58339 8.58101 6.4434 8.4986C6.30341 8.41619 6.1943 8.29906 6.12986 8.16201C6.06543 8.02497 6.04857 7.87417 6.08142 7.72868C6.11427 7.5832 6.19535 7.44956 6.3144 7.34467C6.43345 7.23978 6.58514 7.16835 6.75027 7.13941C6.91541 7.11047 7.08657 7.12532 7.24212 7.18209C7.39768 7.23886 7.53063 7.33499 7.62417 7.45832C7.71771 7.58166 7.76764 7.72666 7.76764 7.875C7.76764 8.07391 7.67795 8.26468 7.5183 8.40533C7.35865 8.54598 7.14213 8.625 6.91635 8.625Z" fill="#101820"/>
<path d="M7.34201 8.25H6.49072V9.75H7.34201V8.25Z" fill="#101820"/>
</svg>
