<svg width="87" height="87" viewBox="0 0 87 87" fill="none" xmlns="http://www.w3.org/2000/svg">
<path d="M43.5 0C19.5137 0 0 19.5137 0 43.5C0 55.6934 5.15758 67.3968 14.1513 75.6077C15.1011 76.477 16.5757 76.4102 17.4436 75.459C18.3114 74.5077 18.2439 73.0346 17.2934 72.1667C9.2653 64.8358 4.66072 54.3871 4.66072 43.5C4.66072 22.0838 22.0838 4.66072 43.5 4.66072C64.9162 4.66072 82.3393 22.0838 82.3393 43.5C82.3393 64.9162 64.9162 82.3393 43.5 82.3393C37.1788 82.3393 31.1799 80.8813 25.6719 78.0048C24.5309 77.4131 23.1245 77.8531 22.5275 78.9924C21.9321 80.1334 22.3735 81.5413 23.5144 82.1375C29.6089 85.319 36.5195 87 43.5 87C67.4863 87 87 67.4863 87 43.5C87 19.5137 67.4863 0 43.5 0Z" fill="black"/>
<path d="M45.5625 50.7325C45.5625 48.3626 46.978 46.2251 49.2578 45.1518C54.1102 42.8689 57.1479 38.0482 56.9944 32.8693C56.7909 26.0205 50.8079 20.251 43.6569 20.0097C37.6474 19.7908 32.2046 23.3044 30.1456 28.7172C29.6915 29.9133 30.335 31.2339 31.583 31.6686C32.8325 32.1048 34.2112 31.4887 34.6661 30.2941C36.0095 26.761 39.5631 24.5006 43.4862 24.6115C48.1508 24.7689 52.0543 28.5328 52.1874 32.9997C52.2861 36.3813 50.3038 39.5292 47.1346 41.0207C43.1973 42.8734 40.7516 46.5938 40.7516 50.7325V52.6976C40.7516 53.9687 41.8281 55 43.1566 55C44.4852 55 45.5625 53.9687 45.5625 52.6976V50.7325Z" fill="black"/>
<path d="M43 65C44.1046 65 45 63.8807 45 62.5C45 61.1193 44.1046 60 43 60C41.8954 60 41 61.1193 41 62.5C41 63.8807 41.8954 65 43 65Z" fill="black"/>
</svg>
